{
	"patcher" : 	{
		"fileversion" : 1,
		"appversion" : 		{
			"major" : 8,
			"minor" : 5,
			"revision" : 2,
			"architecture" : "x64",
			"modernui" : 1
		}
,
		"classnamespace" : "box",
		"rect" : [ 761.0, 87.0, 1494.0, 775.0 ],
		"bglocked" : 0,
		"openinpresentation" : 0,
		"default_fontsize" : 12.0,
		"default_fontface" : 0,
		"default_fontname" : "Arial",
		"gridonopen" : 1,
		"gridsize" : [ 15.0, 15.0 ],
		"gridsnaponopen" : 1,
		"objectsnaponopen" : 1,
		"statusbarvisible" : 2,
		"toolbarvisible" : 1,
		"lefttoolbarpinned" : 0,
		"toptoolbarpinned" : 0,
		"righttoolbarpinned" : 0,
		"bottomtoolbarpinned" : 0,
		"toolbars_unpinned_last_save" : 0,
		"tallnewobj" : 0,
		"boxanimatetime" : 200,
		"enablehscroll" : 1,
		"enablevscroll" : 1,
		"devicewidth" : 0.0,
		"description" : "",
		"digest" : "",
		"tags" : "",
		"style" : "",
		"subpatcher_template" : "",
		"assistshowspatchername" : 0,
		"boxes" : [ 			{
				"box" : 				{
					"format" : 6,
					"id" : "obj-11",
					"maxclass" : "flonum",
					"numinlets" : 1,
					"numoutlets" : 2,
					"outlettype" : [ "", "bang" ],
					"parameter_enable" : 0,
					"patching_rect" : [ 405.0, 192.0, 50.0, 22.0 ]
				}

			}
, 			{
				"box" : 				{
					"id" : "obj-8",
					"maxclass" : "newobj",
					"numinlets" : 1,
					"numoutlets" : 1,
					"outlettype" : [ "" ],
					"patching_rect" : [ 410.0, 257.0, 149.0, 22.0 ],
					"text" : "prepend param circlescale"
				}

			}
, 			{
				"box" : 				{
					"annotation" : "## View or monitor video input ##",
					"bgmode" : 1,
					"border" : 0,
					"clickthrough" : 0,
					"enablehscroll" : 0,
					"enablevscroll" : 0,
					"id" : "obj-19",
					"lockeddragscroll" : 0,
					"lockedsize" : 0,
					"maxclass" : "bpatcher",
					"name" : "vz.viewr.maxpat",
					"numinlets" : 1,
					"numoutlets" : 0,
					"offset" : [ 0.0, 0.0 ],
					"patching_rect" : [ 750.0, 391.0, 230.0, 208.0 ],
					"prototypename" : "pixl",
					"varname" : "viewr",
					"viewvisibility" : 1
				}

			}
, 			{
				"box" : 				{
					"annotation" : "## Dual-function video pattern generator ##",
					"bgmode" : 1,
					"border" : 0,
					"clickthrough" : 0,
					"enablehscroll" : 0,
					"enablevscroll" : 0,
					"id" : "obj-20",
					"lockeddragscroll" : 0,
					"lockedsize" : 0,
					"maxclass" : "bpatcher",
					"name" : "vz.patternmappr.maxpat",
					"numinlets" : 20,
					"numoutlets" : 1,
					"offset" : [ 0.0, 0.0 ],
					"outlettype" : [ "jit_gl_texture" ],
					"patching_rect" : [ 617.0, 22.0, 480.0, 198.0 ],
					"prototypename" : "pixl",
					"varname" : "patternmappr",
					"viewvisibility" : 1
				}

			}
, 			{
				"box" : 				{
					"id" : "obj-9",
					"maxclass" : "toggle",
					"numinlets" : 1,
					"numoutlets" : 1,
					"outlettype" : [ "int" ],
					"parameter_enable" : 0,
					"patching_rect" : [ 48.0, 502.0, 24.0, 24.0 ]
				}

			}
, 			{
				"box" : 				{
					"id" : "obj-7",
					"maxclass" : "newobj",
					"numinlets" : 1,
					"numoutlets" : 2,
					"outlettype" : [ "jit_matrix", "" ],
					"patching_rect" : [ 356.0, 546.0, 176.0, 22.0 ],
					"text" : "jit.gl.layer @scale 1.777778 1 1"
				}

			}
, 			{
				"box" : 				{
					"id" : "obj-5",
					"maxclass" : "newobj",
					"numinlets" : 1,
					"numoutlets" : 2,
					"outlettype" : [ "jit_gl_texture", "" ],
					"patching_rect" : [ 919.0, 335.0, 138.0, 22.0 ],
					"text" : "jit.gl.texture @dim 36 20"
				}

			}
, 			{
				"box" : 				{
					"attr" : "filter",
					"id" : "obj-6",
					"maxclass" : "attrui",
					"numinlets" : 1,
					"numoutlets" : 1,
					"outlettype" : [ "" ],
					"parameter_enable" : 0,
					"patching_rect" : [ 919.0, 305.0, 150.0, 22.0 ]
				}

			}
, 			{
				"box" : 				{
					"id" : "obj-4",
					"maxclass" : "newobj",
					"numinlets" : 2,
					"numoutlets" : 2,
					"outlettype" : [ "jit_gl_texture", "" ],
					"patching_rect" : [ 340.0, 415.0, 228.0, 22.0 ],
					"text" : "jit.gl.slab @inputs 2 @file rhuthmos01.jxs"
				}

			}
, 			{
				"box" : 				{
					"id" : "obj-2",
					"maxclass" : "newobj",
					"numinlets" : 1,
					"numoutlets" : 2,
					"outlettype" : [ "jit_gl_texture", "" ],
					"patching_rect" : [ 340.0, 380.0, 165.0, 22.0 ],
					"text" : "jit.gl.texture @dim 1920 1080"
				}

			}
, 			{
				"box" : 				{
					"id" : "obj-1",
					"maxclass" : "newobj",
					"numinlets" : 1,
					"numoutlets" : 3,
					"outlettype" : [ "jit_matrix", "bang", "" ],
					"patching_rect" : [ 63.0, 628.0, 139.0, 22.0 ],
					"text" : "jit.world @size 1280 720"
				}

			}
, 			{
				"box" : 				{
					"attr" : "filter",
					"id" : "obj-3",
					"maxclass" : "attrui",
					"numinlets" : 1,
					"numoutlets" : 1,
					"outlettype" : [ "" ],
					"parameter_enable" : 0,
					"patching_rect" : [ 296.0, 344.0, 150.0, 22.0 ]
				}

			}
 ],
		"lines" : [ 			{
				"patchline" : 				{
					"destination" : [ "obj-2", 0 ],
					"source" : [ "obj-1", 1 ]
				}

			}
, 			{
				"patchline" : 				{
					"destination" : [ "obj-8", 0 ],
					"source" : [ "obj-11", 0 ]
				}

			}
, 			{
				"patchline" : 				{
					"destination" : [ "obj-4", 0 ],
					"source" : [ "obj-2", 0 ]
				}

			}
, 			{
				"patchline" : 				{
					"destination" : [ "obj-19", 0 ],
					"order" : 1,
					"source" : [ "obj-20", 0 ]
				}

			}
, 			{
				"patchline" : 				{
					"destination" : [ "obj-5", 0 ],
					"order" : 0,
					"source" : [ "obj-20", 0 ]
				}

			}
, 			{
				"patchline" : 				{
					"destination" : [ "obj-2", 0 ],
					"source" : [ "obj-3", 0 ]
				}

			}
, 			{
				"patchline" : 				{
					"destination" : [ "obj-7", 0 ],
					"source" : [ "obj-4", 0 ]
				}

			}
, 			{
				"patchline" : 				{
					"destination" : [ "obj-4", 1 ],
					"source" : [ "obj-5", 0 ]
				}

			}
, 			{
				"patchline" : 				{
					"destination" : [ "obj-5", 0 ],
					"source" : [ "obj-6", 0 ]
				}

			}
, 			{
				"patchline" : 				{
					"destination" : [ "obj-4", 0 ],
					"source" : [ "obj-8", 0 ]
				}

			}
, 			{
				"patchline" : 				{
					"destination" : [ "obj-1", 0 ],
					"source" : [ "obj-9", 0 ]
				}

			}
 ],
		"parameters" : 		{
			"obj-19::obj-20" : [ "letterbox_menu", "letterbox_menu", 0 ],
			"obj-19::obj-37" : [ "aspect_menu", "aspect_menu", 0 ],
			"obj-20::obj-10" : [ "pictctrl[9]", "pictctrl[1]", 0 ],
			"obj-20::obj-104" : [ "pictctrl[14]", "pictctrl[1]", 0 ],
			"obj-20::obj-107" : [ "H pattern", "H pattern", 0 ],
			"obj-20::obj-11" : [ "umenu[22]", "umenu", 0 ],
			"obj-20::obj-125" : [ "pictctrl[8]", "pictctrl[1]", 0 ],
			"obj-20::obj-126" : [ "pictctrl[11]", "pictctrl[1]", 0 ],
			"obj-20::obj-13" : [ "pictctrl[10]", "pictctrl[1]", 0 ],
			"obj-20::obj-131" : [ "pictctrl[13]", "pictctrl[1]", 0 ],
			"obj-20::obj-150" : [ "V y offset[1]", "V y offset", 0 ],
			"obj-20::obj-151" : [ "V offset", "V offset", 0 ],
			"obj-20::obj-155" : [ "pictctrl[73]", "pictctrl[1]", 0 ],
			"obj-20::obj-162" : [ "pictctrl[66]", "pictctrl[1]", 0 ],
			"obj-20::obj-165" : [ "V rotboundmode", "V rotboundmode", 0 ],
			"obj-20::obj-168" : [ "pictctrl[75]", "pictctrl[1]", 0 ],
			"obj-20::obj-178" : [ "H multiplier", "H multiplier", 0 ],
			"obj-20::obj-180" : [ "V multiplier", "V multiplier", 0 ],
			"obj-20::obj-182" : [ "V pattern", "V pattern", 0 ],
			"obj-20::obj-191" : [ "pictctrl[12]", "pictctrl[1]", 0 ],
			"obj-20::obj-201" : [ "H rotboundmode", "H rotboundmode", 0 ],
			"obj-20::obj-207" : [ "rotation[4]", "rotation", 0 ],
			"obj-20::obj-208" : [ "V rotation", "V rotation", 0 ],
			"obj-20::obj-221" : [ "V zoom", "V zoom", 0 ],
			"obj-20::obj-223" : [ "V zoomrange", "V zoomrange", 1 ],
			"obj-20::obj-224" : [ "V zoom[1]", "V zoom", 0 ],
			"obj-20::obj-226" : [ "pictctrl[74]", "pictctrl[1]", 0 ],
			"obj-20::obj-233" : [ "pictctrl[71]", "pictctrl[1]", 0 ],
			"obj-20::obj-236" : [ "pictctrl[63]", "pictctrl[1]", 0 ],
			"obj-20::obj-237" : [ "pictctrl[69]", "pictctrl[1]", 0 ],
			"obj-20::obj-26" : [ "pictctrl[6]", "pictctrl[1]", 0 ],
			"obj-20::obj-27" : [ "H yoffset", "H yoffset", 0 ],
			"obj-20::obj-278" : [ "textbutton[4]", "textbutton[1]", 0 ],
			"obj-20::obj-31" : [ "H Zoom[4]", "H zoom", 0 ],
			"obj-20::obj-32" : [ "H zoomrange", "H zoomrange", 1 ],
			"obj-20::obj-34" : [ "H zoom", "H zoom", 0 ],
			"obj-20::obj-35" : [ "H xoffset", "H xoffset", 0 ],
			"obj-20::obj-48" : [ "rotation[7]", "rotation", 0 ],
			"obj-20::obj-49" : [ "H rotation", "H rotation", 0 ],
			"obj-20::obj-51" : [ "pictctrl[72]", "pictctrl[1]", 0 ],
			"obj-20::obj-52" : [ "umenu[47]", "umenu", 0 ],
			"obj-20::obj-56" : [ "H boundmode", "H boundmode", 0 ],
			"obj-20::obj-62" : [ "umenu[27]", "umenu", 0 ],
			"obj-20::obj-67" : [ "V bound", "V bound", 0 ],
			"parameterbanks" : 			{

			}
,
			"inherited_shortname" : 1
		}
,
		"dependency_cache" : [ 			{
				"name" : "data-handler-L.maxpat",
				"bootpath" : "C74:/packages/Vizzie/patchers/utils",
				"type" : "JSON",
				"implicit" : 1
			}
, 			{
				"name" : "data-handler.maxpat",
				"bootpath" : "C74:/packages/Vizzie/patchers/utils",
				"type" : "JSON",
				"implicit" : 1
			}
, 			{
				"name" : "exact_menu.maxpat",
				"bootpath" : "C74:/packages/Vizzie/patchers/utils",
				"type" : "JSON",
				"implicit" : 1
			}
, 			{
				"name" : "lo_hi_UI_control.maxpat",
				"bootpath" : "C74:/packages/Vizzie/patchers/utils",
				"type" : "JSON",
				"implicit" : 1
			}
, 			{
				"name" : "monorotate.genjit",
				"bootpath" : "C74:/packages/Vizzie/patchers/gen",
				"type" : "gJIT",
				"implicit" : 1
			}
, 			{
				"name" : "monotile.genjit",
				"bootpath" : "C74:/packages/Vizzie/patchers/gen",
				"type" : "gJIT",
				"implicit" : 1
			}
, 			{
				"name" : "rfc_pix.genjit",
				"bootpath" : "C74:/packages/Vizzie/patchers/gen",
				"type" : "gJIT",
				"implicit" : 1
			}
, 			{
				"name" : "rotation_calculation.genjit",
				"bootpath" : "C74:/packages/Vizzie/patchers/gen",
				"type" : "gJIT",
				"implicit" : 1
			}
, 			{
				"name" : "snapshot_UI.maxpat",
				"bootpath" : "C74:/packages/Vizzie/patchers/utils",
				"type" : "JSON",
				"implicit" : 1
			}
, 			{
				"name" : "vizzie-datatexconvert.js",
				"bootpath" : "C74:/packages/Vizzie/code",
				"type" : "TEXT",
				"implicit" : 1
			}
, 			{
				"name" : "vizzie-global.js",
				"bootpath" : "C74:/packages/Vizzie/code",
				"type" : "TEXT",
				"implicit" : 1
			}
, 			{
				"name" : "vz.patternmappr.maxpat",
				"bootpath" : "C74:/packages/Vizzie/patchers",
				"type" : "JSON",
				"implicit" : 1
			}
, 			{
				"name" : "vz.viewr.maxpat",
				"bootpath" : "C74:/packages/Vizzie/patchers",
				"type" : "JSON",
				"implicit" : 1
			}
, 			{
				"name" : "vzgl-blackframe.maxpat",
				"bootpath" : "C74:/packages/Vizzie/patchers/utils",
				"type" : "JSON",
				"implicit" : 1
			}
, 			{
				"name" : "vzgl-context.maxpat",
				"bootpath" : "C74:/packages/Vizzie/patchers/utils",
				"type" : "JSON",
				"implicit" : 1
			}
, 			{
				"name" : "vzgl-disable.maxpat",
				"bootpath" : "C74:/packages/Vizzie/patchers/utils",
				"type" : "JSON",
				"implicit" : 1
			}
, 			{
				"name" : "vzgl-object.maxpat",
				"bootpath" : "C74:/packages/Vizzie/patchers/utils",
				"type" : "JSON",
				"implicit" : 1
			}
, 			{
				"name" : "windowresize.js",
				"bootpath" : "C74:/packages/Vizzie/code",
				"type" : "TEXT",
				"implicit" : 1
			}
 ],
		"autosave" : 0
	}

}
